<svg width="113" height="33" viewBox="0 0 113 33" fill="none" xmlns="http://www.w3.org/2000/svg">
<path fill-rule="evenodd" clip-rule="evenodd" d="M29.8589 7H26.5068V27H29.8589V21.5L33.6899 18L40.3942 27H44.704L36.5632 15.5L44.704 7H40.3942L29.8589 16.5V7ZM51.4082 7H47.5773V27H62.9012V23.5H51.4082V7ZM64.8167 27L73.4364 7H77.2674L85.8871 27H81.5773L79.6618 23H71.042L69.1266 27H64.8167ZM75.3519 11.5L71.9998 20H78.704L75.3519 11.5Z" fill="white"/>
<path fill-rule="evenodd" clip-rule="evenodd" d="M4 7V27H16.4507C19.8888 27 23.1549 24.5 23.1549 21V12.5C23.1549 9.49999 19.8028 6.99999 16.4507 7H4ZM7.49996 10.5V23.5H15.9719C18.089 23.5 19.5 22.4 19.5 19.95V14C19.5 11.9 18.3662 10.5 15.9719 10.5H7.49996Z" fill="white"/>
<path fill-rule="evenodd" clip-rule="evenodd" d="M88.2812 27V7H103.126C105.042 7 106 9 106 10.5V13.5C106 16 104.084 16 104.084 16C104.084 16 106 16 106 19V23.5C106 24.5 105.042 27 102.647 27H88.2812ZM91.6334 15V10H100.809C102.647 10 102.647 11.5 102.647 11.5V13.5C102.647 13.5 102.647 15 100.809 15H91.6334ZM91.6334 18V24H100.809C102.647 24 102.647 23.0769 102.647 23.0769V19.3846C102.647 19.3846 102.647 18 100.809 18H91.6334Z" fill="white"/>
<rect x="2" y="5" width="8" height="8" rx="4" fill="#FF4C00"/>
</svg>
