<svg width="113" height="33" viewBox="0 0 113 33" fill="none" xmlns="http://www.w3.org/2000/svg">
<path fill-rule="evenodd" clip-rule="evenodd" d="M29.8592 7H26.5071V27H29.8592V21.5L33.6902 18L40.3944 27H44.7043L36.5634 15.5L44.7043 7H40.3944L29.8592 16.5V7ZM51.4085 7H47.5775V27H62.9014V23.5H51.4085V7ZM64.8169 27L73.4367 7H77.2676L85.8874 27H81.5775L79.662 23H71.0423L69.1268 27H64.8169ZM75.3521 11.5L72 20H78.7042L75.3521 11.5Z" fill="black"/>
<path fill-rule="evenodd" clip-rule="evenodd" d="M4 7V27H16.4507C19.8888 27 23.1549 24.5 23.1549 21V12.5C23.1549 9.49999 19.8028 6.99999 16.4507 7H4ZM7.49996 10.5V23.5H15.9719C18.089 23.5 19.5 22.4 19.5 19.95V14C19.5 11.9 18.3662 10.5 15.9719 10.5H7.49996Z" fill="black"/>
<path fill-rule="evenodd" clip-rule="evenodd" d="M88.2817 27V7H103.127C105.042 7 106 9 106 10.5V13.5C106 16 104.085 16 104.085 16C104.085 16 106 16 106 19V23.5C106 24.5 105.042 27 102.648 27H88.2817ZM91.6339 15V10H100.809C102.648 10 102.648 11.5 102.648 11.5V13.5C102.648 13.5 102.648 15 100.809 15H91.6339ZM91.6339 18V24H100.809C102.648 24 102.648 23.0769 102.648 23.0769V19.3846C102.648 19.3846 102.648 18 100.809 18H91.6339Z" fill="black"/>
<rect x="2" y="5" width="8" height="8" rx="4" fill="#FF4C00"/>
</svg>
